<?xml version="1.0" standalone="no"?><!DOCTYPE svg PUBLIC "-//W3C//DTD SVG 1.1//EN" "http://www.w3.org/Graphics/SVG/1.1/DTD/svg11.dtd"><svg t="1666705818457" class="icon" viewBox="0 0 1024 1024" version="1.1" xmlns="http://www.w3.org/2000/svg" p-id="2388" data-darkreader-inline-fill="" width="64" height="64" xmlns:xlink="http://www.w3.org/1999/xlink"><path d="M861.696 372.364H162.351c-12.568 0-22.715 9.774-22.715 20.2V864.21c0 10.427 10.1 20.155 22.715 20.155h699.298c12.568 0 22.715-9.728 22.715-20.155V392.518c0-10.426-10.1-20.154-22.668-20.154z m0-46.546c37.888 0 69.213 30.162 69.213 66.746V864.21c0 36.539-31.372 66.7-69.26 66.7H162.351c-37.935 0-69.26-30.161-69.26-66.7V392.564c0-36.584 31.325-66.746 69.26-66.746h699.345zM256 139.636h512q23.273 0 23.273 23.273T768 186.182H256q-23.273 0-23.273-23.273T256 139.636zM162.909 232.727h698.182q23.273 0 23.273 23.273t-23.273 23.273H162.909q-23.273 0-23.273-23.273t23.273-23.273z" p-id="2389" fill="#1afa29" data-darkreader-inline-fill="" style="--darkreader-inline-fill:#45a751;"></path><path d="M232.727 512a46.545 46.545 0 1 0 93.091 0 46.545 46.545 0 1 0-93.09 0zM372.364 744.727a46.545 46.545 0 1 0 93.09 0 46.545 46.545 0 1 0-93.09 0zM512 512a46.545 46.545 0 1 0 93.09 0 46.545 46.545 0 1 0-93.09 0zM698.182 744.727a46.545 46.545 0 1 0 93.09 0 46.545 46.545 0 1 0-93.09 0z" p-id="2390" fill="#1afa29" data-darkreader-inline-fill="" style="--darkreader-inline-fill:#45a751;"></path><path d="M417.327 796.3l-158.86-270.336 40.122-23.552L417.84 705.35 557.8 472.902l202.705 263.726-36.91 28.393-161.094-209.687z" p-id="2391" fill="#1afa29" data-darkreader-inline-fill="" style="--darkreader-inline-fill:#45a751;"></path></svg>