<?xml version="1.0" standalone="no"?><!DOCTYPE svg PUBLIC "-//W3C//DTD SVG 1.1//EN" "http://www.w3.org/Graphics/SVG/1.1/DTD/svg11.dtd"><svg t="1664853453401" class="icon" viewBox="0 0 1024 1024" version="1.1" xmlns="http://www.w3.org/2000/svg" p-id="4786" width="64" height="64" xmlns:xlink="http://www.w3.org/1999/xlink"><path d="M212.0643 225.6804l69.439488 0 0 200.112128c0 103.4721-5.4559 187.8723-16.3359 253.2157 62.6084 65.3435 127.9519 132.0479 196.0325 200.1121l-61.2639 53.0883c-16.3523-19.0556-44.928-51.7284-85.76-98.0163-32.6717-35.3915-55.8244-61.2475-69.4395-77.5997C225.664 827.392 169.856 900.8957 77.2956 977.1356 60.9597 958.0636 43.264 939.008 24.2084 919.9677c76.2245-51.7437 126.592-110.2725 151.1035-175.616 24.4961-57.1843 36.7524-153.8396 36.7524-289.9681L212.0643 225.680384zM82.0163 70.3037l334.655488 0 0 286.159872c62.6237-98.0163 111.6324-213.8081 147.0239-347.4084l77.5997 20.4165c-16.3523 43.6163-32.6881 88.6241-49.0076 135.04l375.728128 0c0 236.8963-2.7361 443.8241-8.1756 620.7836 0 119.7916-65.3435 176.9759-196.0325 171.5364-54.4645 0-104.832 0-151.1035 0-8.1756-40.8484-13.6161-68.0796-16.3359-81.6804 46.2725 5.4395 102.0959 8.1603 167.4404 8.1603 81.6804 5.4395 122.5277-31.2955 122.5277-110.2725 5.4395-95.2801 8.1603-274.9757 8.1603-539.0879L563.695616 233.951172c-24.5125 57.1843-50.3685 110.2879-77.5997 159.2801-29.952-16.3205-53.1036-27.2159-69.4241-32.6717l0 318.560256-69.439488 0L347.232328 139.744256 151.455744 139.744256l0 547.248128L82.016256 686.992384 82.016256 70.303744zM677.9361 474.8001l69.4241-20.4165c13.5997 49.0076 32.6717 111.6324 57.1843 187.8559 13.5997 49.024 24.4961 85.7764 32.6717 110.2725l-77.5997 20.4165-12.2563-57.1679c-27.2323 2.7197-66.7044 5.4395-118.4317 8.1603-32.6717 5.4559-55.8244 8.1756-69.4241 8.1756-27.2323 2.7197-55.8244 8.1756-85.7764 16.3359l-32.6717-65.3435c21.7764-13.5997 38.1123-32.6717 49.0076-57.1843 38.1123-95.2801 72.1603-201.4556 102.1123-318.5439l77.5844 16.3359c-40.832 127.9683-80.3205 240.9595-118.4317 338.9757 57.1679-5.4395 115.712-9.5355 175.616-12.2563C716.0484 593.2483 699.7115 534.7041 677.9361 474.8001z" p-id="4787" fill="#e7691d"></path></svg>